<svg width="552" height="509" viewBox="0 0 552 509" fill="none" xmlns="http://www.w3.org/2000/svg">
<path fill-rule="evenodd" clip-rule="evenodd" d="M92.996 0.456593C73.369 0.981593 70.396 1.28559 65.436 3.27959C49.227 9.79659 33.496 23.2306 33.496 30.5566C33.496 34.2466 35.138 34.6506 42.64 32.8066C48.209 31.4376 66.762 31.1916 192.496 30.8136C340.643 30.3686 383.668 31.0376 394.703 33.9566C404.936 36.6626 415.104 43.1216 425.496 53.5156C435.744 63.7646 439.508 69.3786 445.586 83.4776L449.496 92.5456L449.501 123.78C449.503 140.959 449.797 160.077 450.153 166.264L450.802 177.514H490.756H530.71L530.189 117.264C529.847 77.5966 529.275 55.1346 528.516 51.5136C526.711 42.8996 521.102 32.5996 513.952 24.7646C501.74 11.3846 488.916 3.59159 475.496 1.39559C469.797 0.462593 425.613 0.132593 291.496 0.0185928C194.421 -0.0634072 105.096 0.133593 92.996 0.456593ZM47.233 58.5136C44.063 58.9196 38.606 60.6616 35.108 62.3836C18.519 70.5506 7.16901 83.7446 1.83701 101.059C0.0880084 106.741 0.0030082 115.326 8.20037e-06 288.014C-0.0019918 396.685 0.362008 469.214 0.913008 469.514C1.41701 469.789 2.49701 467.989 3.31301 465.514C5.33701 459.375 18.576 446.182 27.917 440.994C41.633 433.377 41.564 433.385 101.496 432.481C130.921 432.038 204.046 431.635 263.996 431.586C331.502 431.531 376.422 431.106 381.996 430.47C386.963 429.903 392.861 428.541 395.158 427.431C403.828 423.243 414.758 410.957 419.646 399.907C421.666 395.341 421.815 393.074 422.283 359.845L422.779 324.623L420.387 324.125C419.072 323.851 411.021 323.411 402.496 323.149C385.453 322.624 375.715 320.682 366.342 315.94C351.026 308.191 335.138 290.865 329.479 275.74C322.081 255.966 322.947 237.183 332.119 218.514C336.052 210.509 338.219 207.581 345.891 199.907C353.797 191.999 356.379 190.119 365.496 185.631C378.903 179.032 386.702 177.514 407.191 177.514H422.711L422.329 136.264L421.947 95.0136L418.018 87.5136C412.674 77.3106 400.554 65.1776 391.267 60.7336L384.538 57.5136L218.767 57.6446C127.593 57.7166 50.402 58.1076 47.233 58.5136ZM500.373 69.4166C501.268 69.9836 502.088 73.7466 502.714 80.1516C503.88 92.0976 503.014 135.553 501.508 140.719C500.171 145.301 496.257 148.514 492.011 148.514C488.806 148.514 480.88 143.722 479.954 141.224C479.707 140.558 479.858 126.739 480.29 110.514L481.076 81.0136L483.665 77.2096C488.532 70.0586 495.936 66.6056 500.373 69.4166ZM386.608 206.095C373.612 209.59 362.081 218.995 355.996 231.064C353.31 236.392 352.96 238.16 352.652 247.978C352.25 260.769 353.11 264.368 358.667 273.168C363.714 281.158 369.494 286.25 379.33 291.367L387.094 295.406L469.295 295.71L551.497 296.014L551.496 250.264V204.514L471.746 204.58C405.405 204.635 391.09 204.889 386.608 206.095ZM408.122 235.178C412.734 238.696 414.531 242.413 414.696 248.777C414.978 259.632 410.008 264.79 398.714 265.365L391.432 265.736L386.464 260.768L381.496 255.8V249.014C381.496 242.231 381.498 242.226 386.353 237.371C391.197 232.527 391.228 232.514 397.92 232.514C403.646 232.514 405.141 232.904 408.122 235.178ZM450.441 339.764C450.36 363.984 448.831 396.271 447.47 402.514C443.547 420.504 430.035 437.453 407.649 452.464C402.873 455.667 401.586 457.004 402.451 457.867C403.25 458.665 410.809 459.014 427.298 459.014C449.724 459.014 451.256 458.894 455.845 456.776C462.777 453.577 469.744 448.206 472.937 443.598C478.439 435.66 478.729 433.629 479.525 397.511C480.363 359.448 480.696 357.582 487.122 354.897C495.569 351.368 501.081 355.799 502.566 367.313C503.753 376.514 503.707 411.187 502.487 427.181C500.849 448.649 497.387 456.715 484.654 468.726C471.104 481.509 466.894 482.425 418.201 483.199C397.188 483.533 374.708 483.471 368.246 483.062L356.496 482.317V479.401C356.496 475.997 357.28 475.439 374.996 466.243L386.996 460.014L372.496 459.73C364.521 459.574 288.921 459.574 204.496 459.73L50.996 460.014L44.232 462.876C35.594 466.531 31.496 470.256 31.496 474.455C31.496 484.116 44.944 497.607 61.778 504.834L68.996 507.932L108.496 508.473C130.221 508.771 220.446 508.983 308.996 508.946C433.675 508.893 471.462 508.595 476.496 507.624C480.071 506.935 486.146 504.849 489.996 502.989C504.772 495.849 513.857 486.024 524.186 466.014L529.864 455.014L530.309 389.264L530.753 323.514H490.624H450.496L450.441 339.764Z" fill="white"/>
</svg>
