<svg width="800" height="677" viewBox="0 0 800 677" fill="none" xmlns="http://www.w3.org/2000/svg">
<path fill-rule="evenodd" clip-rule="evenodd" d="M82.8542 0.603764C52.1892 4.01476 23.7982 23.9798 9.60921 52.1118C5.63821 59.9848 1.95921 72.8578 0.810208 82.8968C0.089208 89.1948 -0.140792 172.19 0.0812079 345.112L0.405209 598.112L2.56021 605.711C7.66821 623.721 15.0922 636.873 26.8262 648.699C38.9932 660.96 52.4032 668.866 69.4232 673.808L77.3542 676.112H399.354C712.805 676.112 721.553 676.061 728.854 674.205C747.156 669.553 761.431 661.089 774.867 646.923C787.64 633.457 795.807 617.286 798.845 599.443C799.602 594.998 799.839 516.097 799.639 334.612L799.354 76.1118L797.05 68.6788C786.615 35.0198 762.272 11.3968 728.747 2.39676L720.354 0.143765L404.854 0.0117649C231.329 -0.0602351 86.4292 0.205764 82.8542 0.603764ZM718.245 64.3548C724.596 66.6318 730.676 72.0558 734.388 78.7568L737.354 84.1118L737.687 106.362C737.87 118.6 737.728 128.612 737.371 128.612C737.015 128.612 735.8 128.119 734.673 127.515C733.546 126.912 727.875 125.562 722.07 124.515C711.842 122.671 701.895 122.612 400.435 122.616C70.2512 122.62 79.9492 122.492 67.0642 127.038L62.8542 128.523V106.961V85.3978L65.8722 79.0748C69.2492 71.9978 74.1602 67.4718 81.6352 64.5508C86.1852 62.7718 97.5752 62.7038 399.854 62.6538C696.202 62.6048 713.622 62.6978 718.245 64.3548ZM718.12 187.187C724.197 189.257 731.29 195.612 734.642 201.989C737.294 207.033 737.341 207.455 737.677 229.283L738.018 251.453L732.084 249.607C728.821 248.591 722.676 247.276 718.43 246.686C707.785 245.205 93.2852 245.174 82.1762 246.654C77.8742 247.227 72.3612 248.352 69.9262 249.154C62.3952 251.634 62.8542 252.896 62.8542 229.695C62.8542 210.76 63.0502 208.32 64.9252 203.946C68.7382 195.051 73.8792 190.158 82.7362 186.993C85.6642 185.946 146.152 185.691 399.926 185.656C682.752 185.616 713.951 185.766 718.12 187.187ZM721.354 311.264C726.802 314.195 732.273 319.885 735.012 325.469C737.091 329.707 737.322 331.787 737.663 349.315L738.037 368.517L653.195 368.849L568.354 369.181L560.354 371.474C542.603 376.561 528.706 384.206 516.566 395.563C506.812 404.687 500.911 413.061 491.772 430.751C482.749 448.217 474.745 459.057 464.549 467.62C437.588 490.265 402.251 497.211 368.854 486.43C355.071 481.981 342.532 474.279 331.009 463.184C322.243 454.743 315.405 444.672 306.519 427.112C298.546 411.356 289.835 400.14 278.565 391.116C268.639 383.168 253.412 375.404 240.725 371.82L231.354 369.173L147.104 368.85L62.8542 368.527V350.09C62.8542 329.49 63.5162 326.42 69.5912 318.846C72.9412 314.672 76.3302 312.306 82.3542 309.937C84.6392 309.039 160.632 308.8 401.354 308.935L717.354 309.112L721.354 311.264Z" fill="#F5F5F5"/>
</svg>
