<svg width="91" height="77" viewBox="0 0 91 77" fill="none" xmlns="http://www.w3.org/2000/svg">
<g clip-path="url(#clip0_772_22)">
<path fill-rule="evenodd" clip-rule="evenodd" d="M9.42812 0.0687605C5.9387 0.457227 2.70804 2.73097 1.09345 5.93483C0.641582 6.83146 0.222942 8.29752 0.092195 9.44082C0.0101511 10.1581 -0.016021 19.6101 0.00924081 39.3036L0.0461094 68.1169L0.291331 68.9823C0.872579 71.0334 1.71737 72.5312 3.0526 73.878C4.4371 75.2744 5.96305 76.1748 7.89979 76.7376L8.80227 77H45.4432C81.1113 77 82.1068 76.9942 82.9376 76.7828C85.0202 76.253 86.6445 75.2891 88.1735 73.6758C89.6269 72.1422 90.5562 70.3005 90.9019 68.2684C90.9881 67.7622 91.0151 58.7765 90.9923 38.1078L90.9599 8.6681L90.6977 7.82159C89.5103 3.98828 86.7402 1.29794 82.9254 0.272958L81.9703 0.0163729L46.069 0.00133986C26.3233 -0.00685997 9.83493 0.0234337 9.42812 0.0687605ZM81.7303 7.32914C82.453 7.58846 83.1449 8.20618 83.5673 8.96933L83.9048 9.57919L83.9427 12.1132C83.9635 13.5069 83.9473 14.6472 83.9067 14.6472C83.8662 14.6472 83.7279 14.591 83.5997 14.5222C83.4715 14.4536 82.8262 14.2998 82.1656 14.1806C81.0017 13.9706 79.8698 13.9638 45.5662 13.9643C7.994 13.9648 9.09756 13.9502 7.63135 14.4679L7.15229 14.637V12.1814V9.72565L7.49571 9.00555C7.87999 8.19957 8.43882 7.68412 9.28941 7.35146C9.80716 7.14886 11.1032 7.14111 45.5001 7.13542C79.222 7.12984 81.2043 7.14043 81.7303 7.32914ZM81.7161 21.3181C82.4076 21.5538 83.2148 22.2776 83.5962 23.0038C83.898 23.5783 83.9033 23.6263 83.9415 26.1122L83.9803 28.6371L83.3051 28.4269C82.9338 28.3111 82.2345 28.1614 81.7514 28.0942C80.5401 27.9255 10.6151 27.922 9.35097 28.0906C8.86144 28.1558 8.23411 28.2839 7.95702 28.3753C7.10006 28.6577 7.15229 28.8014 7.15229 26.1591C7.15229 24.0027 7.17459 23.7248 7.38795 23.2267C7.82184 22.2137 8.40684 21.6564 9.41469 21.296C9.74788 21.1767 16.6309 21.1477 45.5083 21.1437C77.6915 21.1391 81.2417 21.1562 81.7161 21.3181ZM82.0841 35.4488C82.7041 35.7826 83.3266 36.4306 83.6383 37.0665C83.8749 37.5492 83.9011 37.786 83.9399 39.7822L83.9825 41.9691L74.3282 42.0069L64.674 42.0447L63.7636 42.3059C61.7437 42.8852 60.1624 43.7559 58.7809 45.0493C57.671 46.0884 56.9995 47.0421 55.9596 49.0567C54.9328 51.0458 54.0221 52.2804 52.8618 53.2556C49.7939 55.8345 45.7728 56.6256 41.9725 55.3978C40.4041 54.8911 38.9773 54.014 37.6661 52.7504C36.6686 51.7891 35.8905 50.6421 34.8793 48.6423C33.9721 46.8479 32.9808 45.5705 31.6984 44.5428C30.5689 43.6376 28.8362 42.7534 27.3925 42.3453L26.3262 42.0438L16.7392 42.007L7.15229 41.9702V39.8705C7.15229 37.5244 7.22762 37.1748 7.9189 36.3122C8.30011 35.8369 8.68575 35.5674 9.37123 35.2976C9.63124 35.1954 18.2786 35.1681 45.6708 35.1835L81.629 35.2037L82.0841 35.4488Z" fill="#4CCF7F"/>
</g>
<defs>
<clipPath id="clip0_772_22">
<rect width="91" height="77" fill="white"/>
</clipPath>
</defs>
</svg>
